<?xml version="1.0" encoding="utf-8"?>
<svg version="1.1" id="Layer_1" xmlns="http://www.w3.org/2000/svg" xmlns:xlink="http://www.w3.org/1999/xlink" x="0px" y="0px"
	 viewBox="0 0 1772.357 1631.601" enable-background="new 0 0 1772.357 1631.601" xml:space="preserve">
<g>
	<path d="M1720.053,637.127c0.53,9.465,3.264,23.622,7.289,31.213c0.662-0.017,1.544-0.04,2.206-0.057
		c0.726-17.003,0.329-39.838-2.032-56.691c0.9,3.295,9.147,48.989,9.697,53.727c0.789,64.576-0.761,102.392-42.888,190.827
		c-3.604,8.493-4.34,17.527-2.187,26.853c7.099,23.466,5.013,22.278,10.594,21.966c0.466-0.62,46.431-72.014,45.239-173.063
		c0.273,66.907,0.508,124.69-34.483,219.516c-2.827,8.352-3.927,15.642-3.566,23.637c1.609,18.555,0.584,18.613,2.641,23.776
		c1.894-0.823,89.598-155.393,0.577-436.927C1726.49,621.936,1719.047,616.419,1720.053,637.127"/>
	<path d="M1602.753,454.999c1.202,16.608,17.06,36.047,21.266,29.589c0.107-0.164,10.022-29.933,8.28-67.841
		c13.523,44.903,25.802,50.907-16.053,146.077c-4.931,15.482,8.489,26.326,23.83,46.671c5.255,10.068-10.327,85.962-16.193,114.533
		c-3.242,17.513,3.736,23.927,12.051,37.093c6.894,9.162,11.055,14.692,45.659-84.586c0.671,0.034,1.565,0.08,2.235,0.115
		c14.126,25.477,12.325,26.122,17.043,29.797c0.181-0.111,13.246-35.599-13.377-171.094c-1.257-5.529-1.257-5.529-7.755-45.942
		c21.594,74.106,22.007,75.522,28.009,121.359c2.452,14.647,5.264,23.155,9.703,29.364c0.686-0.219,1.6-0.511,2.286-0.73
		c0.053-0.414,4.758-42.996-46.507-176.702c-19.4-43.47-53.143-93.127-62.175-99.124c-2.377,8.048,0.772,19.573,1.513,27.932
		c1.575,17.748-5.45,41.27-9.42,58.64C1602.927,451.591,1602.684,453.54,1602.753,454.999"/>
	<path d="M1602.67,341.013c24.87,41.483,50.905,81.024,42.933,66.433C1613.672,355.151,1581.197,305.195,1602.67,341.013"/>
	<path d="M1421.397,316.331c2.038,15.314,20.785,29.393,27.479,20.637c0.81-1.059,5.624-9.006,20.913-61.555
		c0.641,0.3,1.496,0.7,2.137,1c2.465,14.356,6.415,33.408,8.021,47.885c-25.868,227.131-88.863,207.983-26.859,250.858
		c32.275,18.253,65.969-195.488,66.202-197.707c6.206,65.457,11.566,121.988-6.186,227.948c-1.801,17.943,8.29,22.697,21.964,35.4
		c34.5,25.773,32.716-191.659,12.998-304.449c3.535,2.149,12.171,21.42,33.237,101.02c2.848,11.316,10.447,27.333,19.709,25.075
		c0.118-0.241,7.096-34.152-51.368-159.135c-8.077-14.38-16.632-25.014-29.531-36.702c-89.298-76.429-75.349-48.571-80.133-17.978
		c-2.974,19.014-12.028,43.28-18.041,61.562C1421.14,313.942,1421.124,314.014,1421.397,316.331"/>
	<path d="M1449.116,195.011c14.979,24.779,60.371,63.683,63.907,54.772C1519.114,234.439,1424.166,153.736,1449.116,195.011"/>
	<path d="M1182.829,216.17c1.867,16.804,27.799,26.519,36.537,17.116c2.833-3.049,31.47-76.265,31.745-76.988
		c18.274,49.864,25.235,24.03-38.765,158.657c-5.29,17.836,18.662,20.85,46.209,30.536c2.195,1.343,6.28,3.842,6.139,116.967
		c1.147,18.078,14.046,20.111,30.734,27.092c16.128,5.143,16.128,5.143,47.826-106.591c12.443-13.813,95.266,99.115,4.61-143.655
		c-3.555-9.283-3.555-9.283-0.705-43.989c29.025,61.459,29.025,61.459,42.059,104.617c9.364,21.216,28.19,25.089,31.504,16.743
		c0.083-0.209,0.52-34.423-64.91-148.701c-10.196-14.327-22.341-24.283-104.157-53.511c-17.486-5.495-21.663-1.056-22.323-0.111
		c-20.828,29.848-30.288,65.014-45.597,97.445C1183.032,213.803,1182.645,214.909,1182.829,216.17"/>
	<path d="M1241.06,89.894c13.142,25.035,78.217,54.234,81.918,36.756c1.944-9.183-19.217-29.426-50.447-42.773
		C1243.664,72.746,1235.543,79.383,1241.06,89.894"/>
	<path d="M911.264,181.764c2.614,15.074,29.512,18.469,38.374,4.844c22.501-34.597,34.58-77.249,41.842-74.172
		c5.155,65.44,9.763-0.158-41.56,281.571c-0.577,10.674,5.239,17.111,17.286,19.134c47.967,3.421,37.926,31.833,83.683-224.58
		c43.682,263.167,2.648,232.217,64.849,245.355c18.863,2.042,18.428-13.521,18.4-14.184
		c-5.423-129.75-21.567-209.072-29.326-247.192c-0.044-50.945-9.267-80.616,42.466,39.882c7.834,17.367,30.655,21.093,35.142,9.152
		c0.064-0.172-0.507-29.166-59.156-130.313c-13.558-17.756-33.905-23.581-119.93-32.431c-36.34-2.267-36.34-2.267-91.114,116.453
		C911.586,177.122,910.93,179.024,911.264,181.764"/>
	<path d="M993.712,35.573c7.586,21.499,82.005,34.901,92.591,16.674c5.786-9.963-14.021-25.312-49.189-30.943
		C1004.257,17.349,990.23,25.704,993.712,35.573"/>
	<path d="M630.459,206.743c0.826,13.102,25.147,13.494,36.143,0.582c5.034-5.911,39.733-96.768,47.601-98.1
		c13.652,61.978,10.896,3.113-49.327,180.035c-1.609,8.97,3.636,13.606,14.39,12.718c12.371-2.235,24.845-4.274,37.417-6.112
		c4.018,0.317,4.018,0.317,27.364,108.838c5.547,17.005,21.407,11.803,39.338,10.174c14.673-2.538,14.673-2.538,33.083-126.003
		c0.588-1.139,1.846-2.425,2.93-3.11c70.379-4.998,79.227,20.607-1.341-142.032c-3.713-8.085-3.713-8.085,7.172-45.5
		c0.539-0.099,1.259-0.232,1.798-0.331c24.244,47.42,26.224,51.294,41.012,84.906c12.989,17.613,40.839,8.616,42.8-2.501
		c0.023-0.129-3.657-22.3-63.503-116.647c-8.813-10.067-23.069-13.41-120.189,0.317c-24.047,4.347-36.117,6.529-95.575,137.289
		C630.872,203.327,630.41,204.688,630.459,206.743"/>
	<path d="M726.711,42.098c1.59,21.474,76.178,17.023,93.893-5.603c9.363-11.959-7.216-23.161-43.419-20.253
		C739.355,20.777,726.149,34.508,726.711,42.098"/>
	<path d="M390.013,295.245c1.299,10.504,15.394,9.03,24.723-2.587c23.775-29.603,27.586-67.657,42.725-100.917
		c2.275-1.988,1.762-7.236,0.713,43.015c-15.055,85.271-20.591,139.032-15.899,251.281c1.72,10.402,7.672,14.046,17.69,10.831
		c35.954-15.887,33.319-3.416,31.675-86.479c-0.015-0.779-0.425-84.726,13.46-169.003c9.647,56.387,17.268,100.926,46.626,206.205
		c6.28,16.008,20.494,7.668,39.709,2.292c10.574-4.126,15.377-11.765,13.889-22.092c-11.117-77.143-37.507-150.94-49.901-227.803
		c5.565-48.761,4.334-44.188,6.812-46.556c10.154,19.727,23.201,46.287,32.53,66.417c8.405,14.598,30.783,4.981,35.108-8.07
		c1.115-3.364,1.115-3.364-41.266-105.701c-7.929-12.471-27.569-8.691-103.512,21.855c-23.424,10.466-45.548,20.351-94.202,160.403
		C390.359,290.449,389.806,292.634,390.013,295.245"/>
	<path d="M487.16,106.47c-3.174,14.55,30.159,9.966,59.444-8.176c35.129-21.762,33.906-43.241-9.632-28.581
		C505.553,81.596,488.929,98.361,487.16,106.47"/>
	<path d="M194.749,429.565c0.373,14.88,19.389,0.835,24.869-19.09c19.429-70.638,20.188-73.396,36.57-111.14
		c1.695,75.74-13.143,29.173-36.179,198.894c-0.192,8.828,4.169,11.615,10.851,6.935c8.027-6.892,16.252-13.656,24.67-20.286
		c4.613-1.523-2.502-7.307,36.426,94.046c7.312,13.867,17.216,3.14,30.211-5.756c19.891-16.223,5.411-46.542,3.071-134.06
		c2.602-11.598,47.146-21.914,41.878-40.975c-10.116-36.601-31.19-68.559-44.046-103.999c-1.806-7.895-1.806-7.895,11.612-49.881
		c8.07,25.595,16.414,52.062,22.842,69.547c12.215,13.228,32.542-12.984,32.383-22.131c-0.211-12.104-9.776-26.503-14.188-37.777
		c-20.125-51.428-8.849-67.675-34.07-52.95c-73.473,46.388-97.044,56.146-146.058,222.518
		C195.023,426.198,194.737,427.572,194.749,429.565"/>
	<path d="M288.384,220.999c-3.115,6.993-0.24,9.29,7.691,6.145c39.674-15.733,94.031-91.649,39.286-54.423
		C309.475,191.39,292.307,212.191,288.384,220.999"/>
	<path d="M67.238,603.188c0.027,5.886,0.862,5.003,3.264,5.272c12.717-15.497,3.263-23.001,34.56-133.09
		c3.51-7.615-2.456,10.434-5.464,44.107c-10.322,94.657-9.432,146.874,16.161,251.439c6.574,18.554,14.553-0.269,22.182-12.215
		c1.413-2.616,5.711-10.576,2.961-23.162c-14.607-66.845-28.404-129.983-18.663-225.798c5.74,52.169,10.697,97.224,49.943,183.653
		c3.422,5.945,8.041,6.526,13.006,1.637c10.102-11.852,24.088-23.451,17.04-40.73c-34.079-83.543-63.139-164.707-42.593-252.631
		c2.859-5.568-1.43-2.097,13.184,54.096c5.864,11.593,17.727-7.758,20.348-16.793c2.196-7.57,2.196-7.57-6.002-45.703
		c-4.465-20.768-0.395-48.27-1.346-56.492c-9.867,0.256-45.985,53.749-50.933,61.256c-42.828,67.012-58.021,149.55-67.098,198.865
		C67.464,599.518,67.315,600.714,67.238,603.188"/>
	<path d="M147.165,373.228c-21.483,37.138,54.814-70.061,49.798-70.96C191.116,307.257,155.489,358.839,147.165,373.228"/>
	<g>
		<path d="M25.439,869.517c2.464,7.96,2.767-8.77,6.38-31.151c2.943,7.806,29.274,75.15,35.955,80.372
			c4.344-1.164,3.141-1.59,8.126-20.401c4.824-23.176-5.488-19.938-25.879-129.599c-0.282-6.54,7.547-25.914,10.439-33.134
			c10.866-32.194-13.29-30.162-15.39-110.207c0.671-9.112,0.671-9.112,12.011-55.591c-5.071,35.573-5.601,39.292-2.652,63.982
			c4.366,9.299,13.605-26.285,12.943-34.749c-2.751-35.192-3.49-44.65,6.979-79.844c-10.223,30.148-23.475,70.51-31.815,101.232
			L29.325,683.93C14.602,773.812,23.546,862.182,25.439,869.517"/>
		<path d="M17.361,809.721c-0.081,8.646,4.675-72.49,4.749-73.492C22.068,736.869,17.367,809.074,17.361,809.721"/>
	</g>
	<g>
		<path d="M17.14,826.784c0.019-5.338,0.081-9.461,0.107-11.221l-0.11,12.251C17.138,827.505,17.139,827.093,17.14,826.784"/>
		<path d="M60.49,1068.13c2.928,4.995,3.683,2.861,3.2-2.908c-1.496-13.016-1.888-29.759-7.577-41.91
			c-25.916-55.358-26.839-61.258-35.674-117.693C26.846,955.69,29.975,1011.913,60.49,1068.13"/>
		<path d="M84.242,1160.917c4.336,7.565-9.232-33.113-12.755-41.151c-15.648-35.697-15.95-36.773-31.777-93.071
			c7.196,26.141,16.55,61.093,25.113,86.818C65.155,1114.515,82.2,1157.356,84.242,1160.917"/>
	</g>
	<path d="M1747.754,925.307c-2.768,16.659-2.018,24.145-5.218,48.486c-7.96,55.191-41.828,115.822-43.716,148.18
		c3.226-0.977,14.715-27.651,22.766-52.855l8.238-30.812c18.215-88.687,18.926-92.149,22.973-143.883
		C1744.369,947.696,1751.816,900.858,1747.754,925.307"/>
	<path d="M1734.504,640.169c6.471,35.752,14.032,83.65,17.985,119.768c-1.89-20.594-7.022-50.278-9.669-61.357
		c-0.386,18.863,6.237,43.579,9.019,62.24c3.725,24.985,3.25,84.296,3.25,79.638c0-39.162-8.851-112.974-27.746-177.166
		c-13.98-48.803-7.309-53.987-20.41-107.99C1696.814,511.685,1725.26,595.246,1734.504,640.169"/>
	<path d="M1688.93,517.483c15.573,28.862,28.46,79.297,19.984,78.21c-13.367-1.714-46.59-104.08-29.233-91.212
		C1681.07,505.511,1684.121,508.571,1688.93,517.483"/>
	<path d="M1597.327,330.988c14.831,22.714,34.659,52.996,48.276,76.458c-9.248-16.594-43.233-69.284-48.998-77.477L1597.327,330.988
		"/>
	<path d="M185.187,316.898c-4.755,6.468-17.173,23.604-29.746,42.975L185.187,316.898"/>
	<path d="M17.529,804.515c-0.061,1.564-0.113,3.128-0.158,4.692c1.937-82.404,18.146-149.348,19.903-159.051
		c-7.943,32.493-7.065,28.563-7.949,33.773c25.705-123.576,57.05-197.935,45.918-163.16c-15.87,48.747-14.204,66.321-23.994,97.128
		c-24.206,76.171-26.92,106.781-33.477,180.734C17.688,800.593,17.608,802.554,17.529,804.515"/>
	<path d="M75.179,556.288c-4.905,7.976-8.181,10.521-8.987,6.982c-4.951-21.738,49.977-131.779,36.718-74.594
		C95.84,515.708,82.437,544.486,75.179,556.288"/>
	<path d="M57.311,1008.057c-1.325,12.626-17.464,7.1-8.894-136.411c-0.036-0.618-0.084-1.442-0.12-2.059
		c-2.974,14.927-7.843,34.695-9.654,49.807c-0.562,96.746,4.118,121.459,26.178,194.12
		c-20.384-67.157-37.873-117.466-38.028-207.642c-0.212,22.407,0.877,52.357,3.474,74.614
		c-7.055-52.399-13.977-80.106-7.927-142.152c0.001-0.003,8.599-54.571,8.599-54.571c-7.5,22.321-12.616,46.984-13.474,56.88
		c-0.592-4.907-0.201-26.079-0.219-25.079c0.805-44.955,10.315-65.952,28.466-102.177c0.89-1.273,2.226-2.893,3.417-3.891
		c4.937,0.445,5.713,2.856,7.376,12.481c7.433,56.159,19.151,68.118,13.572,101.678c-11.794,70.941-14.389,95.778-12.791,177.02
		C57.382,1002.93,57.49,1005.489,57.311,1008.057"/>
	<path d="M86.628,749.682c-8.558,14.837-17.484,14.732-21.707-0.256c-12-42.591,22.492-117.958,33.746-70.802
		C103.167,705.438,94.336,736.319,86.628,749.682"/>
	<path d="M179.459,1183.922c-0.917,11.111-9.234,5.339-14.261-0.91c-17.732-22.041-16.74-144.719-16.722-145.948l-11.909,32.784
		c-0.103,0.405-9.234,44.224,28.798,176.683c5.069,18.868-12.528-3.973-24.691-19.372c7.499,53.461,23.124,78.625,11.689,63.406
		c-26.648-37.728-36.543-65.875-54.897-124.244c-10.272-31.377-43.178-34.58-5.894-140.652c2.19-6.506,2.19-6.506,7.562-60.28
		c-22.07,44.432-22.07,44.432-28.662,72.147c-1.514,2.454-0.766,2.063-3.567,1.675c-14.193-19.234-20.388-41.476,38.26-136.208
		c12.789-15.274,14.72,7.649,56.108,60.805c21.352,31.354-3.815,43.088,17.765,213.782
		C179.406,1180.437,179.592,1181.866,179.459,1183.922"/>
	<path d="M177.631,925.618c-11.791,24.013-33.102,18.389-42.228-11.144c-13.635-44.127,13.463-94.146,38.731-60.888
		C189.095,877.713,185.185,910.233,177.631,925.618"/>
	<path d="M364.658,1325.23c-1.791,11.561-15.858,7.664-23.684-3.606c-10.832-15.598-24.481-115.618-26.991-119.734
		c-2.753,16.332-7.269,38.002-8.942,54.48c7.822,84.035,13.719,131.712,52.683,213.855c5.221,12.683-15.216-1.929-26.441-9.389
		c-24.455-17.385-57.694-105.547-66.29-204.26c-14.944,125.812,3.826,135.538,5.349,156.334c-3.418,0.16-2.439,1.641-22.788-16.514
		c-13.743-13.009-42.953-58.159-17.45-196.094c0.091-1.008,4.992-56.171,4.589-57.583c-10.897,19.7-24.46,46.557-33.135,67.332
		c-6.189,11.475-17.992-5.819-20.883-16.459c-1.485-5.466-5.431-19.987,52.457-123.447c8.186-11.12,16.873-11.894,29.984-2.671
		c117.808,96.893,50.135,6.784,100.979,250.516C364.521,1320.227,364.961,1322.541,364.658,1325.23"/>
	<path d="M335.076,1068.37c-11.453,29.513-44.096,25.314-59.2-7.615c-17.89-39.002,6.425-83.981,41.07-60.756
		C340.252,1019.326,341.578,1051.615,335.076,1068.37"/>
	<path d="M606.18,1415.974c-1.23,13.355-23.238,12.175-33.394,1.127c-10.721-11.664-35.693-123.959-35.925-125.072l-12.289,38.398
		c-6.101,27.428,51.057,156.895,51.637,158.19c7.19,21.969-43.798-5.999-50.453-2.4c-4.352,52.406-1.954,60.223-4.168,65.528
		c-5.436,2.016-5.994,2.119-30.24-7.557c-16.672-7.386-20.142-8.923-47.624-89.287c-2.556-4.429-2.002-2.324-35.536-18.742
		c-19.81-11.398-19.81-11.398,30.998-119.459c3.52-8.069,3.52-8.069,0.452-62.139c-27.406,52.64-27.406,52.64-42.301,89.021
		c-10.347,13.39-31.247-7.231-32.431-19.742c-0.66-6.979,20.797-49.779,65.597-130.845c14.655-20.924,24.799-4.347,105.31,22.957
		c34.145,14.339,12.04,19.508,69.411,194.002C605.955,1412.547,606.32,1413.848,606.18,1415.974"/>
	<path d="M546.158,1171.519c-9.888,36.128-56.159,35.568-76.17-0.922c-19.112-34.85,3.026-76.367,43.833-62.862
		C544.433,1121.376,551.159,1153.246,546.158,1171.519"/>
	<path d="M879.876,1452.36c-2.378,14.428-27.169,17.387-37.361,4.46c-1.898-2.407-9.601-18.188-39.87-96.829
		c-3.857-2.944-3.781-5.674-6.965,56.538c14.66,81.95,23.303,124.813,44.543,191.314c-1.568,10.008-14.023,8.526-42.319,6.324
		c-15.907-1.883-15.907-1.883-28.859-40.722c-0.148-0.444-15.691-49.743-29.644-134.708
		c-11.716,65.015-20.969,116.368-26.811,158.77c-2.052,3.334-4.4,5.578-15.998,4.074c-52.279-8.982-52.527,8.668-11.592-198.8
		c-0.21-79.922,8.538-83.954-42.762,26.002c-8.542,15.339-31.977,5.243-35.483-7.708c-1.311-4.842-1.311-4.842,59.076-144.99
		c16.742-30.545,37.9-15.509,120.683-8.292c41.105,6.445,40.227,34.06,56.366,82.745
		C864.365,1415.353,880.924,1443.293,879.876,1452.36"/>
	<path d="M795.827,1221.247c-6.037,39.031-61.369,47.694-85.804,13.434c-20.655-28.959-1.563-71.074,41.651-67.756
		C786.984,1173.008,798.75,1202.353,795.827,1221.247"/>
	<path d="M1158.769,1417.794c-0.985,15.371-27.664,25.74-37.56,14.598c-1.214-1.367-2.091-2.354-44.009-101.598
		c-2.492,0.343-1.124-4.537-7.971,43.343c-1.626,13.366-1.657,13.621,55.308,132.038c3.564,14.25-24.473,16.686-51.483,21.063
		c-0.99,0.322-0.99,0.322-27.815,72.228c-5.622,9.454-21.919,9.98-39.187,11.818c-16.384,1.069-16.384,1.069-32.146-70.07
		c-3.207-3.286-2.487-1.415-43.709,0.099c-27.747-0.935-11.571-17.108,6.531-53.188c12.239-24.394,25.461-58.377,35.717-83.669
		c3.596-10.253,3.596-10.253-7.363-60.507c-5.627-0.762,3.149-2.554-42.273,109.11c-12.884,18.849-40.637,9.576-42.62-2.217
		c-0.558-3.316-0.558-3.316,22.404-55.89c67.719-155.054,8.005-112.483,159.494-136.295c21.965-1.887,21.965-1.887,95.578,153.62
		C1158.485,1414.557,1158.859,1415.596,1158.769,1417.794"/>
	<path d="M1062.159,1211.68c-0.91,41.134-54.047,62.802-83.613,34.095c-24.591-23.877-10.9-70.54,33.035-77.732
		C1047.187,1165.62,1062.593,1192.102,1062.159,1211.68"/>
	<path d="M1396.588,1331.217c-1.407,14.003-19.542,28.795-28.508,19.79c-21.67-21.765-25.263-52.36-38.283-78.352
		c-0.578-0.074-1.349-0.172-1.927-0.246c-13.77,19.863,1.042,39.025,1.428,58.542c15.611,82.497,20.203,121.692,14.867,177.352
		c-1.778,5.694-7.705,11.171-17.619,16.279c-26.027,12.03-28.433,12.829-32.187,9.216c1.846-40.453,3.305-72.406-11.378-156.03
		c-9.456,61.036-17.622,113.749-46.977,176.666c-6.26,10.248-20.391,13.358-39.43,19.015c-24.57,6.007-10.845-11.391,0.527-39.46
		c14.118-34.844,26.249-90.99,36.055-166.878c-5.801-60.586-4.515-55.024-7.268-56.393c-13.363,11.953-12.11,40.047-16.864,57.334
		c-3.768,13.703-10.33,31.51-14.757,45.015c-7.504,18.244-28.61,20.886-34.098,11.097c-2.382-4.25-2.382-4.25,15.588-64.239
		c9.412-31.42,17.548-74.506,23.98-106.668c9.496-36.829,30.127-31.884,102.193-62.273c30.038-10.096,31.836-10.7,93.776,133.771
		C1396.237,1326.463,1396.784,1328.227,1396.588,1331.217"/>
	<path d="M1299.492,1142.826c4.135,39.204-40.229,71.898-68.797,50.7c-24.342-18.062-18.206-66.288,19.117-82.476
		C1280.724,1101.162,1297.473,1123.679,1299.492,1142.826"/>
	<path d="M1588.068,1188.838c-0.211,14.168-15.104,34.041-22.132,29.534c-10.878-6.977-12.065-27.642-16.807-39.664
		c-5.421-13.742-14.656-31.209-21.489-44.306c-0.384,49.995-1.358,52.886,2.871,62.74c18.933,44.111,22.873,53.29,32.737,93.639
		c0.156,5.861-3.735,13.199-10.674,20.134c-45.995,41.134-9.728-1.123-60.634,107.787c-3.8,6.391-8.688,11.775-15.849,17.455
		c-35.958,26.861-19.651,16.464-16.01-52.313c-2.954-1.48,1.653-2.243-31.162,17.288c-5.766,2.896-6.425,2.492-9.587,0.548
		c-0.184-1.857-0.217-4.453,0.421-6.208c22.562-62.044,27.257-74.955,42.605-148.611c1.874-11.895,1.874-11.895-11.696-56.066
		c-10.997,72.781-12.979,85.896-22.091,123.812c-9.664,25.082-36.044,28.949-31.142,7.652
		c58.821-255.551-14.682-152.175,107.641-251.229c13.724-9.517,24.563-17.034,82.163,112.743
		C1587.605,1185.269,1588.045,1187.299,1588.068,1188.838"/>
	<path d="M1495.036,1026.445c8.709,38.382-24.76,80.305-51.9,65.011c-23.05-12.989-24.232-62.405,5.297-86.298
		C1473.527,988.77,1490.792,1007.741,1495.036,1026.445"/>
	<path d="M1710.955,1017.297c-0.125,6.573-3.549,28.309-10.597,30.725c-16.303-18.349-16.243-43.294-25.932-64.31
		c-3.12,3.952,2.809,21.952,5.643,57.122c7.151,53.967,19.646,129.787-41.547,221.543c16.316-45.801,29.203-81.977,19.89-158.642
		c-7.026,81.301-19.382,169.375-74.861,233.29c-1.281,1.404-3.135,3.144-4.576,4.384c-0.222-1.473-0.004-3.579,0.633-4.926
		c41.281-87.287,61.763-183.649,42.267-277.462c-4.415,2.958-1.522,31.786-12.411,111.971c-5.029,25.507-23.51,35.996-21.015,14.325
		c19.905-172.823-6.364-180.254,19.579-217.736c13.319-16.82,25.572-34.152,36.691-51.948c17.229-23.872,39.334,8.273,65.699,95.544
		C1710.974,1014.775,1710.984,1014.844,1710.955,1017.297"/>
	<path d="M1632.17,870.958c12.246,35.572-6.794,83.175-29.526,73.819c-19.261-7.928-27.479-55.651-8.816-84.837
		C1610.377,838.79,1626.212,853.65,1632.17,870.958"/>
	<path d="M1755.088,839.299c-0.64,22.231,0.741-18.479-17.871-61.439c2.359,14.546,15.443,92.926,15.582,116.562
		c-11.414,99.069-11.171,99.74-31.212,174.695l4.831-19.659c-5.15,15.771-14.963,44.011-11.516,27.839
		c12.551-58.896,16.105-94.685,16.535-166.495c-0.492-13.258-0.492-13.258-11.938-50.325c1.229,16.756,13.679,153.182-7.029,159.37
		c-1.264-2.764-1.787-3.908-1.526-9.054c4.15-81.929-2.088-124.159-10.722-182.608c-5.87-36.722,5.981-37.196,15.17-102.659
		c1.321-7.275,1.819-7.691,4.587-9.997c9.408,4.169,26.663,47.902,30.036,60.9C1753.308,797.104,1755.027,818.08,1755.088,839.299"
		/>
	<path d="M1699.107,687.082c14.986,33.078,12.255,85.465-4.235,81.237c-13.921-3.569-28.695-49.684-22.552-83.302
		C1678.149,662.137,1690.757,668.652,1699.107,687.082"/>
</g>
</svg>
