<?xml version="1.0" encoding="utf-8"?>
<svg version="1.1" id="Layer_1" xmlns="http://www.w3.org/2000/svg" xmlns:xlink="http://www.w3.org/1999/xlink" x="0px" y="0px"
	 viewBox="0 0 4000 2660.557" enable-background="new 0 0 4000 2660.557" xml:space="preserve">
<g>
	<path d="M1099.994,1790.395c46.316-51.869,0.422-88.79-11.781-135.164c-25.33-96.265,64.567-67.092,59.774-114.045
		c-9.577-93.825,48.408-216.368,189.94-228.899c121.198-10.73,205.916,78.987,217.684,171.471
		c2.546,20.006,11.4,29.602,31.907,31.575c39.686,3.819,59.334,33.609,48.234,71.645c-15.567,53.343-43.338,93.041,2.714,123.969
		c2.929,1.968,6.815,3.073,5.01,7.559c-1.49,3.704-5.219,4.401-8.795,4.316c-128.194-3.057-10.056-169.662-167.389-28.401
		c-9.517,8.545-4.325,17.48,3.177,23.912c62.423,53.521,94.196,126.933,128.111,198.612c26.946,56.95,13.93,108.422-27.693,153.872
		c-10.211,11.15-20.552,20.901-14.728,39.385c11.629,36.905,6.798,40.192,152.762,36.411c34.861-0.903,37.815-35.616,19.372-55.086
		c-49.912-52.698-49.699-112.021-22.973-174.685c74.449-174.553,142.542-160.629,79.643-202.34
		c-88.398-58.62-123.119-211.727-68.695-325.43c76.611-160.057,254.322-142.996,371.601-85.804
		c104.516,50.967,167.146,12.544,144.137,50.193c-22.524,36.856-22.29,36.547,18.813,51.199
		c41.223,14.695,89.089-4.312,30.072,75.463c-20.391,27.564-35.604,33.998-30.742,44.333c5.93,12.608,35.428-3.99,39.181,7.611
		c2.783,8.602-9.773,11.06-15.859,15.861c-14.112,11.132-29.199,21.019-40.512,35.46c-59.288,75.679-116.11-5.498-139.424,67.831
		c-18.963,59.643-65.735,59.339-41.238,88.146c220.502,259.3,60.23,327.713,58.152,371.323c-1.62,34.001,5.485,42.448,39.364,44.523
		c129.626,7.941,132.354,2.904,145.961,21.498c13.453,18.381,66.909,94.719,66.043,130.209c-0.795,32.576-30.563,4.95-35.205,51.662
		c-6.836,68.785,7.691,155.503-14.732,166.535c-46.423,22.84-33.86-64.95-36.653-116.996c-4.058-75.631,6.457-96.635-190.236-89.463
		c-16.11,0.587-21.523,12.412-21.051,26.729c6.437,195.048,13.541,220.518-2.864,263.306
		c-26.318,68.642-95.311,64.569-91.844,20.325c0.534-6.811,1.817-14.482,5.447-19.987c31.331-47.525,25.492-101.333,26.237-153.818
		c1.933-136.294-8.155-149.561-133.958-137.74c-11.037,1.037-17.062,9.152-18.293,20.291
		c-4.203,38.012-14.613,197.768,2.076,231.849c4.342,8.868,9.196,17.555,12.697,26.751c29.805,78.299-98.271,118.564-93.997-57.534
		c4.622-190.435,20.233-226.513-41.567-230.255c-212.715-12.881-212.318-10.35-212.413,33.295
		c-0.121,55.747-4.022,111.436-1.164,167.254c2.052,40.083,2.635,80.395-24.087,115.013c-30.398,39.381-88.797,44.05-80.941-5.093
		c5.976-37.385,28.191-15.022,35.959-168.268c5.7-112.453,12.144-140.019-52.724-143.009c-116.532-5.371-90.068,5.41-86.556,183.619
		c0.775,39.314,6.602,76.765,26.643,111.97c41.565,73.017-104.893,99.495-99.489-65.33c1.886-57.529-1.003-114.962-2.225-172.43
		c-1.287-60.536-27.129-66.22-208.196-47.195c-25.999,2.732-31.29,7.878-31.858,33.937c-3.854,176.696,7.72,200.667-28.646,193.858
		c-13.992-2.619-21.982-11.808-20.983-25.743c3.044-42.449-4.968-84.703-1.588-127.087c5.021-62.949-46.688-43.831-52.073-81.667
		c-6.901-48.486,13.575-63.84,40.873-130.6c10.149-24.821,16.401-18.193,187.897-29.36c167.398-10.899-13.631-64.351,18.279-192.714
		c75.515-303.778,225.357-176.816,59.488-290.913c-16.84-11.583-36.269-0.617-26.108,39.901
		C1182.399,1765.585,1141.787,1774.768,1099.994,1790.395z"/>
	<path d="M2957.374,1058.413c-7.796,123.506-45.229,406.945-40.283,483.847c3.394,52.766,50.602-20.026,91.798-70.771
		c44.448-54.751,54.536-58.015,40.585-74.236c-29.031-33.755-27.299-73.911-22.061-114.247c1.946-14.978,10.898-17.615,23.419-8.088
		c26.154,19.901,41.905,44.45,57.664,20.62c47.128-71.264,117.974-68.146,190.01-61.987c9.087,0.777,15.863,7.02,12.553,14.999
		c-19.142,46.139-37.923,166.306-161.419,148.362c-21.797-3.167-38.244,3.013-52.438,19.599
		c-13.751,16.069-58.503,73.592-44.666,86.092c5.588,5.048,10.42-1.893,15.365-4.151c36.619-16.729,101.957-88.109,172.637-65.726
		c37.294,11.811,80.174,63.003,37.24,84.876c-84.949,43.276-144.331-43.357-166.635,8.349c-8.243,19.111,45.463,31.353,33.935,58.4
		c-9.927,23.291-63.464,9.346-88.161,2.525c-29.815-8.235-42.294-5.76-59.281,20.265c-198.158,303.577-1.956,534.439-49.731,993.461
		c-4.246,40.791-17.856,55.134-59.277,57.365c-72.744,3.917-119.266,11.193-142.856-62.052
		c-37.296-115.798,15.844-169.934,46.844-571.104c10.366-134.142,48.115-401.423,55.841-577.131
		c26.666-606.423,83.36-586.072-61.101-588.578c-54.029-0.937-108.053-1.173-161.614,8.436
		c-24.887,4.465-36.347-7.017-32.386-32.694c53.877-349.228,104.92-246.552-57.447-331.225
		c-38.647-20.154-43.851-61.765-8.889-88.591c282.135-216.482,208.927-146.782,416.696-401.112
		c28.109-34.409,29.001-5.308,92.674,90.703c133.648,201.524,354.552,281.047,342.508,342.753
		c-3.047,15.61-10.434,26.403-26.136,31.57c-118.368,38.943-155.691-12.934-156.493,53.467
		c-4.2,347.542,98.758,338.032-52.777,336.08C2913.24,865.525,2970.576,849.269,2957.374,1058.413z M3061.798,587.116
		c3.116-55.507-49.172-112.417-105.997-115.366c-163.821-8.504-175.463,218.548-28.613,231.067
		C2995.187,708.613,3064.123,652.392,3061.798,587.116z"/>
	<path d="M1.053,2209.581c-4.206-44.725,3.555-82.33,34.951-114.941c10.444-10.848,18.025-13.567,32.442-4.613
		c95.353,59.217,12.852,173.227,76.529,172.557c27.208-0.286,36.951-4.962,39.175-24.201
		c10.472-90.581-3.781-105.291,48.761-155.193c8.907-8.459,17.845-3.58,25.096,2.278c36.081,29.147,60.437,64.185,54.669,113.63
		c-5.586,47.882-9.733,64.784,8.937,64.868c13.523,0.061,29.192,1.12,29.69-20.071c2.235-95.11,3.384-112.067,43.797-149.116
		c6.833-6.264,14.38-7.261,22.215-1.874c114.737,78.885,16.483,180.687,83.794,175.829c45.958-3.317-4.171-71.362,36.176-137.095
		c31.262-50.934,46.037-50.144,83.404-3.577c27.311,34.035,26.254,49.377,15.433,307.874
		c-9.67,230.993-3.867,225.723-51.462,223.686c-24.038-1.029-45.651-5.022-65.297-22.744
		c-23.499-21.198-58.239-13.817-75.979,12.035c-2.508,3.655-5.341,6.391-9.656,6.456c-33.381,0.502-67.457,5.563-95.12-21.448
		c-14.934-14.583-50.018-11.095-62.693,5.271c-7.186,9.279-15.77,12.758-27.046,12.489c-32.839-0.782-63.762-2.787-87.972-31.673
		c-17.309-20.652-50.45-14.395-63.316,8.5c-4.174,7.427-9.475,11.85-17.485,12.402c-58.865,4.055-63.216,6.791-67.109-52.063
		C10.247,2547.449,12.622,2332.595,1.053,2209.581z M529.323,2368.164c-4.956-22.43-23.011-33.705-48.792-32.541
		c-21.723,0.981-20.078,18.911-23.997,32.733c-2.527,8.914-7.435,117.654-6.611,161.559c0.782,41.668,10.41,34.139,50.488,34.612
		c19.001,0.224,28.169-9.373,31.037-27.944C535.744,2508.758,534.057,2389.586,529.323,2368.164z M279.457,2529.058
		c0.106,21.19-0.437,35.561,46.677,33.31c26.781-1.28,50.951,7.742,26.496-201.747c-3.443-29.499-57.223-51.961-64.184,0.2
		C283.344,2399.051,279.102,2457.894,279.457,2529.058z M184.534,2358.39c-6.243-38.612-67.155-61.877-69.754-0.378
		c-8.112,191.946-19.508,197.269,36.342,193.702c20.643-1.318,34.256-7.863,34.769-30.12
		C186.036,2515.322,186.805,2372.441,184.534,2358.39z"/>
	<path d="M3418.436,2094.09c7.57-7.536,16.934-3.818,23.708,2.115c27.734,24.284,50.46,51.617,49.899,91.419
		c-0.855,60.651-8.351,85.141,22.281,84.462c64.75-1.436-12.231-87.437,69.862-171.637c9.338-9.578,18.969-9.967,29.115-1.151
		c69.673,60.541,48.838,101.875,49.117,148.292c0.187,31.057,36.603,26.172,37.894,1.549c4.047-77.171-9.658-107.348,45.29-150.589
		c10.288-8.096,19.037,0.246,26.276,6.288c91.868,76.678,13.5,170.388,71.474,167.974c66.553-2.771-10.456-70.098,59.644-159.09
		c15.469-19.639,23.47-19.45,42.434-3.316c61.565,52.379,46.349,74.469,34.221,378.849c-6.931,174.002,2.07,172.451-49.988,170.387
		c-24.306-0.963-46.095-5.741-65.859-22.484c-22.505-19.065-51.023-13.499-67.664,9.918c-3.611,5.082-7.366,8.987-13.816,9.116
		c-32.974,0.658-66.035,3.883-94.906-18.841c-30.447-23.964-49.208,11.262-55.157,15.111c-18.433,11.927-79.362,3.248-92.117-14.434
		c-12.962-17.967-31.098-20.773-50.59-21.789c-28.128-1.466-8.523,31.187-51.869,33.198c-50.956,2.365-55.055-1.055-56.135-51.474
		C3371.288,2118.943,3368.378,2143.922,3418.436,2094.09z M3832.296,2334.168c-23.379,1.754-24.156,21.329-25.326,37.498
		c-15.448,213.552-9.638,198.921,32.36,197.092c16.037-0.699,38.351,1.348,39.921-31.675
		C3885.004,2416.077,3893.592,2329.569,3832.296,2334.168z M3503.29,2561.786c38.771,1.538,45.938-2.945,48.105-32.768
		c3.913-53.83,0.054-140.598-3.768-164.997c-5.348-34.133-61.044-55.507-65.18-0.234
		C3467.843,2558.978,3472.356,2560.559,3503.29,2561.786z M3644.328,2541.028c-1.052,15.612,6.556,23.422,22.622,24.096
		c55.376,2.324,53.25-10.18,41.256-195.183c-1.212-18.701-19.688-34.114-36.433-33.453c-21.511,0.85-21.356,17.665-23.229,32.562
		C3642.088,2420.404,3644.708,2535.396,3644.328,2541.028z"/>
	<path d="M853.64,1139.376c-4.268,6.855-11.735,20.627-18.955,3.474c-25.074-59.57-77.049-67.743-131.837-72.004
		c-35.008-2.722-168.878-1.107-159.726-124.821c3.591-48.55,46.717-90.479,102.976-89.272c37.973,0.815,53.57-17.242,67.832-45.977
		c48.203-97.12,155.537-52.574,187.662,13.825C946.092,916.579,908.546,1051.188,853.64,1139.376z"/>
	<path d="M3915.863,931.413c-86.274,47.321-162.297,53.122-182.361,50.915c-42.329-4.655,43.962-33.24-5.564-113.608
		c-16.688-27.08-35.057-53.107-48.492-82.257c-55.505-120.432,98.477-202.378,156.428-94.328c28.779,53.659,82-23.843,142.47,42.252
		C4008.607,767.465,4022.022,873.185,3915.863,931.413z"/>
</g>
</svg>
